<svg fill="none" xmlns="http://www.w3.org/2000/svg" viewBox="0 0 948 239"><path d="M243.7 119.4c0 11.4-4.5 17-14.2 17s-14.2-5.6-14.2-17V2.4h-26.6v116c0 26.6 15.4 41.2 40.8 41.2 25.3 0 40.8-14.6 40.8-41.3V2.3h-26.6v117.1ZM63.2 75.8c12.9-5.2 18.5-19.1 18.5-32.4 0-26.5-12.7-41-41.3-41H1v155h42c30.3 0 41.7-19.3 41.7-44.9 0-20-8-30.7-21.5-36.7ZM27.5 24.2h10.1c11.9 0 17.4 7.6 17.4 22 0 12.8-7.7 19.7-17.8 19.7h-9.7V24.2Zm11.2 111.3H27.5V87.8h8.6c15.9 0 21.9 8 21.9 23.9 0 15.7-5.1 23.8-19.3 23.8Zm283.8-46.8h34.4V65.5h-34.4v-40h44.7V2.3h-71.3v155.1h74.3v-23.2h-47.7V88.7ZM133 2.3h-26.6v155.1h68.5v-23.2H133V2.3Zm676.3 155.1H836V2.4h-26.7v155ZM746 .2c-28 0-40.8 17.8-40.8 39.7v80c0 21.8 12.9 39.7 40.8 39.7 0 0 14.7-.7 26.5-9.5l14 9.5V79h-43.3v21h19.2v20c0 17.3-14.8 16.4-14.8 16.4H746c-10.7 0-14.1-5.6-14.1-17.2V40.6c0-11.6 3.4-17.2 14.1-17.2 10.8 0 14.2 5.6 14.2 17.2v12h26.6V39.9C786.9 18 774 .2 746 .2ZM482.4.2c-28 0-40.8 17.8-40.8 39.7v80c0 21.8 12.8 39.7 40.8 39.7 28 0 40.8-17.8 40.8-39.8V40c0-22-12.9-39.8-40.8-39.8Zm14.2 119c0 11.6-3.5 17.1-14.2 17.1-10.8 0-14.2-5.5-14.2-17.1V40.6c0-11.6 3.4-17.2 14.2-17.2 10.7 0 14.2 5.6 14.2 17.2v78.6ZM921.8 2.3v91.9L885.4 2.3h-24v155.1h24V65.6l36.4 91.8h24V2.4h-24ZM653.5 157.4H680V2.4h-26.6v155ZM629.3 48.1c0-33.1-15.3-45.8-45.1-45.8h-37.4v155.1h26.6V93.8c4.5 0 9-.1 13.5-.6l18.9 64.2h27.4l-22.6-70.2c9-4.1 18.7-14.2 18.7-39.1Zm-46.4 23.8h-9.5V24.2h9.5c14.4 0 19.8 5.4 19.8 23.9s-5.4 23.8-19.8 23.8ZM.9 208.3h22.8v2l-.8.8H3.7v11.8H19v2.8H3.7v12.7H.9v-30.1Zm39.6 6.5a6.6 6.6 0 0 1 7-7h13a6.6 6.6 0 0 1 7 7V232a6.6 6.6 0 0 1-7 6.9h-13a6.6 6.6 0 0 1-7-6.9v-17.2ZM60.3 236c2.8 0 4.3-1.5 4.3-4.3V215c0-2.8-1.5-4.3-4.3-4.3H47.6c-2.8 0-4.3 1.5-4.3 4.3v16.8c0 2.8 1.5 4.3 4.3 4.3h12.7Zm28.3-27.8H107a6.6 6.6 0 0 1 6.9 6.9v4.5a6.6 6.6 0 0 1-7 6.9l7.2 10.3v1.5h-2.4l-8.2-11.8H91.3v11.8h-2.8v-30.1Zm18.3 15.5c2.8 0 4.3-1.5 4.3-4.3v-4.1c0-2.8-1.5-4.3-4.4-4.3H91.3v12.7h15.5Zm58.3-12.7h-11.6v-2.8h26v2l-.8.8H168v27.3h-2.8V211Zm32.8-2.8h2.8v13.3h20.4v-13.3h2.8v30.1h-2.8v-14h-20.4v14H198v-30.1Zm48 0h23v2l-.9.8h-19.3v10.6h15.7v2.8h-15.7v11.1H269v2.8h-23v-30.1Zm66.5 0h18.1a6.6 6.6 0 0 1 7 6.9v1.7c0 4.8-4 5.6-4 5.6v.2s4.3.9 4.3 6v2.8a6.6 6.6 0 0 1-6.8 7h-18.6v-30.2Zm17.9 13.1c2.8 0 4.3-1.5 4.3-4.3v-1.7c0-2.8-1.5-4.3-4.3-4.3h-15v10.3h15Zm.4 14.2c2.8 0 4.3-1.5 4.3-4.3v-2.8c0-2.8-1.5-4.3-4.3-4.3h-15.5v11.4h15.5Zm27.8-27.3h23v2l-.8.8h-19.4v10.6h15.7v2.8h-15.7v11.1h20.3v2.8h-23v-30.1Zm42.4 0h3l20.5 25.8h.2v-25.8h2.8v30.1h-3l-20.4-25.8h-.3v25.8H401v-30.1Zm48.5 0h23v2l-.9.8h-19.3v10.6H468v2.8h-15.7v11.1h20.3v2.8h-23v-30.1Zm42.4 0h22.9v2l-.9.8h-19.2v11.8H510v2.8h-15.3v12.7H492v-30.1Zm41.4 0h2.8v30.1h-2.8v-30.1ZM566 211h-11.6v-2.8h26v2l-.8.8h-10.8v27.3H566V211Zm54.3 3.7a6.6 6.6 0 0 1 6.9-7h13.1a6.6 6.6 0 0 1 7 7V232a6.6 6.6 0 0 1-7 6.9h-13.1a6.6 6.6 0 0 1-7-6.9v-17.2ZM640 236c2.8 0 4.3-1.5 4.3-4.3V215c0-2.8-1.5-4.3-4.3-4.3h-12.7c-2.8 0-4.3 1.5-4.3 4.3v16.8c0 2.8 1.5 4.3 4.3 4.3H640Zm28.2-27.8H691v2l-.8.8H671v11.8h15.3v2.8H671v12.7h-2.8v-30.1Zm62.5 0h26.9v4.5l-2.6 2.6h-16v4.5h13.8v7H739v4.4h18.7v7.1h-27v-30.1Zm42.2 26.3 11.4-26.3h10.8l11.4 26.3v3.8h-8l-2-5.1H783l-1.9 5.1h-8v-3.8Zm21.1-8-4.1-10.8h-.4l-4.1 10.8h8.6Zm29-18.3h22.7a6.7 6.7 0 0 1 7 7.1v5.6a6.3 6.3 0 0 1-5.3 6.5l6 6.8v4.1H846l-8-10.3h-6.7v10.3h-8.2v-30.1Zm19.7 12.5a1.7 1.7 0 0 0 1.8-1.2l.1-.8v-1.2a1.7 1.7 0 0 0-1.2-2h-12.1v5.2h11.4Zm37.7-5.2h-11v-7.3h30.1v4.7l-2.6 2.6h-8.4v22.8h-8.2v-22.8Zm36.1-7.3h8.2v11.4H939v-11.4h8.2v30.1H939V227h-14.2v11.4h-8.2v-30.1Z" fill="#fff"/></svg>